<svg width="32" height="32" viewBox="0 0 32 32" fill="none" xmlns="http://www.w3.org/2000/svg">
<path fill-rule="evenodd" clip-rule="evenodd" d="M31.8973 22.0649C32.1106 21.5678 31.985 20.9939 31.5823 20.6248C31.1795 20.2557 30.5841 20.1688 30.0881 20.4069C28.4134 21.2107 26.5282 21.6628 24.5308 21.6628C17.5735 21.6628 11.9335 16.1657 11.9335 9.38466C11.9335 6.63943 12.8563 4.10802 14.4165 2.06396C14.7463 1.63191 14.7667 1.04585 14.4677 0.593036C14.1687 0.140222 13.6129 -0.0844446 13.0729 0.0291576C5.60027 1.60105 3.47778e-07 8.07789 0 15.8326C-4.00441e-07 24.7616 7.42647 32 16.5875 32C23.4845 32 29.3953 27.8976 31.8973 22.0649Z" fill="#5C5769"/>
</svg>
