<svg width="32" height="32" viewBox="0 0 32 32" fill="none" xmlns="http://www.w3.org/2000/svg">
<path d="M16 0C16.6312 0 17.1429 0.511675 17.1429 1.14286V3.42857C17.1429 4.05975 16.6312 4.57143 16 4.57143C15.3688 4.57143 14.8571 4.05975 14.8571 3.42857V1.14286C14.8571 0.511675 15.3688 0 16 0Z" fill="#F3F3F3"/>
<path fill-rule="evenodd" clip-rule="evenodd" d="M16.0001 25.1429C9.06871 25.1429 6.78299 22.8571 6.85721 16C6.93143 9.14286 9.06871 6.85714 16.0001 6.85714C22.9314 6.85714 25.1429 9.14286 25.1429 16C25.1429 22.8571 22.9314 25.1429 16.0001 25.1429Z" fill="#F3F3F3"/>
<path d="M17.1429 28.5714C17.1429 27.9402 16.6312 27.4286 16 27.4286C15.3688 27.4286 14.8571 27.9402 14.8571 28.5714V30.8571C14.8571 31.4883 15.3688 32 16 32C16.6312 32 17.1429 31.4883 17.1429 30.8571V28.5714Z" fill="#F3F3F3"/>
<path d="M32 16C32 16.6312 31.4883 17.1429 30.8571 17.1429H28.5714C27.9402 17.1429 27.4286 16.6312 27.4286 16C27.4286 15.3688 27.9402 14.8571 28.5714 14.8571H30.8571C31.4883 14.8571 32 15.3688 32 16Z" fill="#F3F3F3"/>
<path d="M3.42857 17.1429C4.05975 17.1429 4.57143 16.6312 4.57143 16C4.57143 15.3688 4.05975 14.8571 3.42857 14.8571H1.14286C0.511675 14.8571 0 15.3688 0 16C0 16.6312 0.511675 17.1429 1.14286 17.1429H3.42857Z" fill="#F3F3F3"/>
<path d="M3.76331 3.76331C4.20962 3.31699 4.93324 3.31699 5.37955 3.76331L6.99579 5.37955C7.44211 5.82586 7.44211 6.54948 6.99579 6.99579C6.54948 7.44211 5.82586 7.44211 5.37955 6.99579L3.76331 5.37955C3.31699 4.93324 3.31699 4.20962 3.76331 3.76331Z" fill="#F3F3F3"/>
<path d="M5.37955 28.7099C4.93324 29.1562 4.20962 29.1562 3.76331 28.7099C3.31699 28.2636 3.31699 27.54 3.76331 27.0937L5.37955 25.4774C5.82586 25.0311 6.54948 25.0311 6.99579 25.4774C7.44211 25.9237 7.44211 26.6474 6.99579 27.0937L5.37955 28.7099Z" fill="#F3F3F3"/>
<path d="M28.7099 3.76331C28.2636 3.31699 27.54 3.31699 27.0937 3.76331L25.4774 5.37955C25.0311 5.82586 25.0311 6.54948 25.4774 6.99579C25.9237 7.44211 26.6474 7.44211 27.0937 6.99579L28.7099 5.37955C29.1562 4.93324 29.1562 4.20962 28.7099 3.76331Z" fill="#F3F3F3"/>
<path d="M27.0937 28.7099C27.54 29.1562 28.2636 29.1562 28.7099 28.7099C29.1562 28.2636 29.1562 27.54 28.7099 27.0937L27.0937 25.4774C26.6474 25.0311 25.9237 25.0311 25.4774 25.4774C25.0311 25.9237 25.0311 26.6474 25.4774 27.0937L27.0937 28.7099Z" fill="#F3F3F3"/>
</svg>
